%TF.GenerationSoftware,KiCad,Pcbnew,9.0.4*%
%TF.CreationDate,2026-01-17T20:14:58-08:00*%
%TF.ProjectId,Donut of Doom,446f6e75-7420-46f6-9620-446f6f6d2e6b,rev?*%
%TF.SameCoordinates,Original*%
%TF.FileFunction,Soldermask,Top*%
%TF.FilePolarity,Negative*%
%FSLAX46Y46*%
G04 Gerber Fmt 4.6, Leading zero omitted, Abs format (unit mm)*
G04 Created by KiCad (PCBNEW 9.0.4) date 2026-01-17 20:14:58*
%MOMM*%
%LPD*%
G01*
G04 APERTURE LIST*
G04 Aperture macros list*
%AMRoundRect*
0 Rectangle with rounded corners*
0 $1 Rounding radius*
0 $2 $3 $4 $5 $6 $7 $8 $9 X,Y pos of 4 corners*
0 Add a 4 corners polygon primitive as box body*
4,1,4,$2,$3,$4,$5,$6,$7,$8,$9,$2,$3,0*
0 Add four circle primitives for the rounded corners*
1,1,$1+$1,$2,$3*
1,1,$1+$1,$4,$5*
1,1,$1+$1,$6,$7*
1,1,$1+$1,$8,$9*
0 Add four rect primitives between the rounded corners*
20,1,$1+$1,$2,$3,$4,$5,0*
20,1,$1+$1,$4,$5,$6,$7,0*
20,1,$1+$1,$6,$7,$8,$9,0*
20,1,$1+$1,$8,$9,$2,$3,0*%
%AMFreePoly0*
4,1,37,0.000000,0.796148,0.078414,0.796148,0.232228,0.765552,0.377117,0.705537,0.507515,0.618408,0.618408,0.507515,0.705537,0.377117,0.765552,0.232228,0.796148,0.078414,0.796148,-0.078414,0.765552,-0.232228,0.705537,-0.377117,0.618408,-0.507515,0.507515,-0.618408,0.377117,-0.705537,0.232228,-0.765552,0.078414,-0.796148,0.000000,-0.796148,0.000000,-0.800000,-2.200000,-0.800000,
-2.203843,-0.796157,-2.239018,-0.796157,-2.311114,-0.766294,-2.366294,-0.711114,-2.396157,-0.639018,-2.396157,-0.603843,-2.400000,-0.600000,-2.400000,0.600000,-2.396157,0.603843,-2.396157,0.639018,-2.366294,0.711114,-2.311114,0.766294,-2.239018,0.796157,-2.203843,0.796157,-2.200000,0.800000,0.000000,0.800000,0.000000,0.796148,0.000000,0.796148,$1*%
%AMFreePoly1*
4,1,37,0.603843,0.796157,0.639018,0.796157,0.711114,0.766294,0.766294,0.711114,0.796157,0.639018,0.796157,0.603843,0.800000,0.600000,0.800000,-0.600000,0.796157,-0.603843,0.796157,-0.639018,0.766294,-0.711114,0.711114,-0.766294,0.639018,-0.796157,0.603843,-0.796157,0.600000,-0.800000,-1.600000,-0.800000,-1.600000,-0.796148,-1.678414,-0.796148,-1.832228,-0.765552,-1.977117,-0.705537,
-2.107515,-0.618408,-2.218408,-0.507515,-2.305537,-0.377117,-2.365552,-0.232228,-2.396148,-0.078414,-2.396148,0.078414,-2.365552,0.232228,-2.305537,0.377117,-2.218408,0.507515,-2.107515,0.618408,-1.977117,0.705537,-1.832228,0.765552,-1.678414,0.796148,-1.600000,0.796148,-1.600000,0.800000,0.600000,0.800000,0.603843,0.796157,0.603843,0.796157,$1*%
%AMFreePoly2*
4,1,37,1.600000,0.796148,1.678414,0.796148,1.832228,0.765552,1.977117,0.705537,2.107515,0.618408,2.218408,0.507515,2.305537,0.377117,2.365552,0.232228,2.396148,0.078414,2.396148,-0.078414,2.365552,-0.232228,2.305537,-0.377117,2.218408,-0.507515,2.107515,-0.618408,1.977117,-0.705537,1.832228,-0.765552,1.678414,-0.796148,1.600000,-0.796148,1.600000,-0.800000,-0.600000,-0.800000,
-0.603843,-0.796157,-0.639018,-0.796157,-0.711114,-0.766294,-0.766294,-0.711114,-0.796157,-0.639018,-0.796157,-0.603843,-0.800000,-0.600000,-0.800000,0.600000,-0.796157,0.603843,-0.796157,0.639018,-0.766294,0.711114,-0.711114,0.766294,-0.639018,0.796157,-0.603843,0.796157,-0.600000,0.800000,1.600000,0.800000,1.600000,0.796148,1.600000,0.796148,$1*%
G04 Aperture macros list end*
%ADD10C,2.200000*%
%ADD11C,1.850000*%
%ADD12FreePoly0,0.000000*%
%ADD13RoundRect,0.800000X-0.800000X-0.000010X0.800000X-0.000010X0.800000X0.000010X-0.800000X0.000010X0*%
%ADD14FreePoly1,0.000000*%
%ADD15FreePoly2,0.000000*%
%ADD16RoundRect,0.800000X0.000010X-0.800000X0.000010X0.800000X-0.000010X0.800000X-0.000010X-0.800000X0*%
%ADD17FreePoly2,270.000000*%
%ADD18RoundRect,0.800000X0.200000X0.000010X-0.200000X0.000010X-0.200000X-0.000010X0.200000X-0.000010X0*%
G04 APERTURE END LIST*
D10*
%TO.C,A1*%
X147900000Y-70670000D03*
D11*
X148200000Y-73700000D03*
X153050000Y-73700000D03*
D10*
X153350000Y-70670000D03*
D12*
X141735000Y-70540000D03*
D13*
X140935000Y-73080000D03*
D14*
X141735000Y-75620000D03*
D13*
X140935000Y-78160000D03*
X140935000Y-80700000D03*
X140935000Y-83240000D03*
X140935000Y-85780000D03*
D14*
X141735000Y-88320000D03*
D13*
X140935000Y-90860000D03*
X140935000Y-93400000D03*
X140935000Y-95940000D03*
X140935000Y-98480000D03*
D14*
X141735000Y-101020000D03*
D13*
X140935000Y-103560000D03*
X140935000Y-106100000D03*
X140935000Y-108640000D03*
X140935000Y-111180000D03*
D14*
X141735000Y-113720000D03*
D13*
X140935000Y-116260000D03*
X140935000Y-118800000D03*
X160315000Y-118800000D03*
X160315000Y-116260000D03*
D15*
X159515000Y-113720000D03*
D13*
X160315000Y-111180000D03*
X160315000Y-108640000D03*
X160315000Y-106100000D03*
X160315000Y-103560000D03*
D15*
X159515000Y-101020000D03*
D13*
X160315000Y-98480000D03*
X160315000Y-95940000D03*
X160315000Y-93400000D03*
X160315000Y-90860000D03*
D15*
X159515000Y-88320000D03*
D13*
X160315000Y-85780000D03*
X160315000Y-83240000D03*
X160315000Y-80700000D03*
X160315000Y-78160000D03*
D15*
X159515000Y-75620000D03*
D13*
X160315000Y-73080000D03*
X160315000Y-70540000D03*
D16*
X148085000Y-119370000D03*
D17*
X150625000Y-118570000D03*
D16*
X153165000Y-119370000D03*
%TD*%
D18*
%TO.C,*%
X140300000Y-111200000D03*
%TD*%
D13*
%TO.C,*%
X140950000Y-93400000D03*
%TD*%
%TO.C,*%
X140950000Y-90850000D03*
%TD*%
D18*
%TO.C,*%
X160900000Y-111200000D03*
%TD*%
M02*
