%TF.GenerationSoftware,KiCad,Pcbnew,9.0.4*%
%TF.CreationDate,2025-12-01T22:06:01-08:00*%
%TF.ProjectId,Donut of Doom,446f6e75-7420-46f6-9620-446f6f6d2e6b,rev?*%
%TF.SameCoordinates,Original*%
%TF.FileFunction,Soldermask,Top*%
%TF.FilePolarity,Negative*%
%FSLAX46Y46*%
G04 Gerber Fmt 4.6, Leading zero omitted, Abs format (unit mm)*
G04 Created by KiCad (PCBNEW 9.0.4) date 2025-12-01 22:06:01*
%MOMM*%
%LPD*%
G01*
G04 APERTURE LIST*
G04 Aperture macros list*
%AMRoundRect*
0 Rectangle with rounded corners*
0 $1 Rounding radius*
0 $2 $3 $4 $5 $6 $7 $8 $9 X,Y pos of 4 corners*
0 Add a 4 corners polygon primitive as box body*
4,1,4,$2,$3,$4,$5,$6,$7,$8,$9,$2,$3,0*
0 Add four circle primitives for the rounded corners*
1,1,$1+$1,$2,$3*
1,1,$1+$1,$4,$5*
1,1,$1+$1,$6,$7*
1,1,$1+$1,$8,$9*
0 Add four rect primitives between the rounded corners*
20,1,$1+$1,$2,$3,$4,$5,0*
20,1,$1+$1,$4,$5,$6,$7,0*
20,1,$1+$1,$6,$7,$8,$9,0*
20,1,$1+$1,$8,$9,$2,$3,0*%
%AMFreePoly0*
4,1,37,0.000000,0.796148,0.078414,0.796148,0.232228,0.765552,0.377117,0.705537,0.507515,0.618408,0.618408,0.507515,0.705537,0.377117,0.765552,0.232228,0.796148,0.078414,0.796148,-0.078414,0.765552,-0.232228,0.705537,-0.377117,0.618408,-0.507515,0.507515,-0.618408,0.377117,-0.705537,0.232228,-0.765552,0.078414,-0.796148,0.000000,-0.796148,0.000000,-0.800000,-2.200000,-0.800000,
-2.203843,-0.796157,-2.239018,-0.796157,-2.311114,-0.766294,-2.366294,-0.711114,-2.396157,-0.639018,-2.396157,-0.603843,-2.400000,-0.600000,-2.400000,0.600000,-2.396157,0.603843,-2.396157,0.639018,-2.366294,0.711114,-2.311114,0.766294,-2.239018,0.796157,-2.203843,0.796157,-2.200000,0.800000,0.000000,0.800000,0.000000,0.796148,0.000000,0.796148,$1*%
%AMFreePoly1*
4,1,37,0.603843,0.796157,0.639018,0.796157,0.711114,0.766294,0.766294,0.711114,0.796157,0.639018,0.796157,0.603843,0.800000,0.600000,0.800000,-0.600000,0.796157,-0.603843,0.796157,-0.639018,0.766294,-0.711114,0.711114,-0.766294,0.639018,-0.796157,0.603843,-0.796157,0.600000,-0.800000,-1.600000,-0.800000,-1.600000,-0.796148,-1.678414,-0.796148,-1.832228,-0.765552,-1.977117,-0.705537,
-2.107515,-0.618408,-2.218408,-0.507515,-2.305537,-0.377117,-2.365552,-0.232228,-2.396148,-0.078414,-2.396148,0.078414,-2.365552,0.232228,-2.305537,0.377117,-2.218408,0.507515,-2.107515,0.618408,-1.977117,0.705537,-1.832228,0.765552,-1.678414,0.796148,-1.600000,0.796148,-1.600000,0.800000,0.600000,0.800000,0.603843,0.796157,0.603843,0.796157,$1*%
%AMFreePoly2*
4,1,37,1.600000,0.796148,1.678414,0.796148,1.832228,0.765552,1.977117,0.705537,2.107515,0.618408,2.218408,0.507515,2.305537,0.377117,2.365552,0.232228,2.396148,0.078414,2.396148,-0.078414,2.365552,-0.232228,2.305537,-0.377117,2.218408,-0.507515,2.107515,-0.618408,1.977117,-0.705537,1.832228,-0.765552,1.678414,-0.796148,1.600000,-0.796148,1.600000,-0.800000,-0.600000,-0.800000,
-0.603843,-0.796157,-0.639018,-0.796157,-0.711114,-0.766294,-0.766294,-0.711114,-0.796157,-0.639018,-0.796157,-0.603843,-0.800000,-0.600000,-0.800000,0.600000,-0.796157,0.603843,-0.796157,0.639018,-0.766294,0.711114,-0.711114,0.766294,-0.639018,0.796157,-0.603843,0.796157,-0.600000,0.800000,1.600000,0.800000,1.600000,0.796148,1.600000,0.796148,$1*%
G04 Aperture macros list end*
%ADD10C,0.250800*%
%ADD11C,0.301600*%
%ADD12R,0.800000X0.800000*%
%ADD13R,1.100000X2.000000*%
%ADD14C,2.000000*%
%ADD15C,2.200000*%
%ADD16C,1.850000*%
%ADD17FreePoly0,0.000000*%
%ADD18RoundRect,0.800000X-0.800000X-0.000010X0.800000X-0.000010X0.800000X0.000010X-0.800000X0.000010X0*%
%ADD19FreePoly1,0.000000*%
%ADD20FreePoly2,0.000000*%
%ADD21RoundRect,0.800000X0.000010X-0.800000X0.000010X0.800000X-0.000010X0.800000X-0.000010X-0.800000X0*%
%ADD22FreePoly2,270.000000*%
%ADD23RoundRect,0.237500X-0.237500X0.250000X-0.237500X-0.250000X0.237500X-0.250000X0.237500X0.250000X0*%
%ADD24C,1.800000*%
%ADD25RoundRect,0.250000X0.650000X-0.650000X0.650000X0.650000X-0.650000X0.650000X-0.650000X-0.650000X0*%
%ADD26RoundRect,0.237500X0.237500X-0.250000X0.237500X0.250000X-0.237500X0.250000X-0.237500X-0.250000X0*%
%ADD27RoundRect,0.240000X0.710000X-0.560000X0.710000X0.560000X-0.710000X0.560000X-0.710000X-0.560000X0*%
%ADD28RoundRect,0.237500X0.287500X0.237500X-0.287500X0.237500X-0.287500X-0.237500X0.287500X-0.237500X0*%
G04 APERTURE END LIST*
D10*
X85730000Y-88980000D02*
X88270000Y-88980000D01*
X88270000Y-91520000D01*
X85730000Y-91520000D01*
X85730000Y-88980000D01*
G36*
X85730000Y-88980000D02*
G01*
X88270000Y-88980000D01*
X88270000Y-91520000D01*
X85730000Y-91520000D01*
X85730000Y-88980000D01*
G37*
D11*
X137875000Y-106875000D02*
X139125000Y-106875000D01*
X139125000Y-109625000D01*
X137875000Y-109625000D01*
X137875000Y-106875000D01*
G36*
X137875000Y-106875000D02*
G01*
X139125000Y-106875000D01*
X139125000Y-109625000D01*
X137875000Y-109625000D01*
X137875000Y-106875000D01*
G37*
X137875000Y-102500000D02*
X139125000Y-102500000D01*
X139125000Y-105250000D01*
X137875000Y-105250000D01*
X137875000Y-102500000D01*
G36*
X137875000Y-102500000D02*
G01*
X139125000Y-102500000D01*
X139125000Y-105250000D01*
X137875000Y-105250000D01*
X137875000Y-102500000D01*
G37*
D10*
X85730000Y-80480000D02*
X88270000Y-80480000D01*
X88270000Y-83020000D01*
X85730000Y-83020000D01*
X85730000Y-80480000D01*
G36*
X85730000Y-80480000D02*
G01*
X88270000Y-80480000D01*
X88270000Y-83020000D01*
X85730000Y-83020000D01*
X85730000Y-80480000D01*
G37*
D12*
%TO.C,D3*%
X134700000Y-107300000D03*
D13*
X134700000Y-109200000D03*
%TD*%
D14*
%TO.C,*%
X137300000Y-80100000D03*
%TD*%
D15*
%TO.C,A1*%
X118385000Y-69370000D03*
D16*
X118685000Y-72400000D03*
X123535000Y-72400000D03*
D15*
X123835000Y-69370000D03*
D17*
X112220000Y-69240000D03*
D18*
X111420000Y-71780000D03*
D19*
X112220000Y-74320000D03*
D18*
X111420000Y-76860000D03*
X111420000Y-79400000D03*
X111420000Y-81940000D03*
X111420000Y-84480000D03*
D19*
X112220000Y-87020000D03*
D18*
X111420000Y-89560000D03*
X111420000Y-92100000D03*
X111420000Y-94640000D03*
X111420000Y-97180000D03*
D19*
X112220000Y-99720000D03*
D18*
X111420000Y-102260000D03*
X111420000Y-104800000D03*
X111420000Y-107340000D03*
X111420000Y-109880000D03*
D19*
X112220000Y-112420000D03*
D18*
X111420000Y-114960000D03*
X111420000Y-117500000D03*
X130800000Y-117500000D03*
X130800000Y-114960000D03*
D20*
X130000000Y-112420000D03*
D18*
X130800000Y-109880000D03*
X130800000Y-107340000D03*
X130800000Y-104800000D03*
X130800000Y-102260000D03*
D20*
X130000000Y-99720000D03*
D18*
X130800000Y-97180000D03*
X130800000Y-94640000D03*
X130800000Y-92100000D03*
X130800000Y-89560000D03*
D20*
X130000000Y-87020000D03*
D18*
X130800000Y-84480000D03*
X130800000Y-81940000D03*
X130800000Y-79400000D03*
X130800000Y-76860000D03*
D20*
X130000000Y-74320000D03*
D18*
X130800000Y-71780000D03*
X130800000Y-69240000D03*
D21*
X118570000Y-118070000D03*
D22*
X121110000Y-117270000D03*
D21*
X123650000Y-118070000D03*
%TD*%
D12*
%TO.C,D2*%
X134700000Y-104920000D03*
D13*
X134700000Y-103020000D03*
%TD*%
D23*
%TO.C,R2*%
X136800000Y-107387500D03*
X136800000Y-109212500D03*
%TD*%
D14*
%TO.C,U2*%
X91500000Y-81750000D03*
X91500000Y-90250000D03*
X106500000Y-90250000D03*
X106500000Y-81750000D03*
%TD*%
D24*
%TO.C,U1*%
X104099200Y-110759200D03*
X91599200Y-100599200D03*
D25*
X104099200Y-108219200D03*
D24*
X91599200Y-113299200D03*
X104099200Y-100599200D03*
X91599200Y-110759200D03*
X91599200Y-108219200D03*
X91599200Y-105679200D03*
X104099200Y-105679200D03*
X104099200Y-103139200D03*
X91599200Y-103139200D03*
X104099200Y-113299200D03*
%TD*%
D26*
%TO.C,R1*%
X136800000Y-104812500D03*
X136800000Y-102987500D03*
%TD*%
D14*
%TO.C,REF\u002A\u002A*%
X137300000Y-76100000D03*
%TD*%
D27*
%TO.C,U3*%
X105150000Y-76400000D03*
X105150000Y-73933333D03*
X105150000Y-71466667D03*
X105150000Y-69000000D03*
%TD*%
D28*
%TO.C,D4*%
X135875000Y-70500000D03*
X134125000Y-70500000D03*
%TD*%
M02*
