M48
; DRILL file {KiCad 9.0.4} date 2025-12-01T22:05:58-0800
; FORMAT={-:-/ absolute / metric / decimal}
; #@! TF.CreationDate,2025-12-01T22:05:58-08:00
; #@! TF.GenerationSoftware,Kicad,Pcbnew,9.0.4
; #@! TF.FileFunction,Plated,1,2,PTH
FMAT,2
METRIC
; #@! TA.AperFunction,Plated,PTH,ViaDrill
T1C0.400
; #@! TA.AperFunction,Plated,PTH,ComponentDrill
T2C1.000
; #@! TA.AperFunction,Plated,PTH,ComponentDrill
T3C1.100
%
G90
G05
T1
X107.0Y-75.25
X108.0Y-113.0
X108.5Y-69.25
X108.5Y-71.095
X114.75Y-82.0
X127.4Y-79.4
X127.75Y-71.75
X134.0Y-73.75
T2
X91.599Y-100.599
X91.599Y-103.139
X91.599Y-105.679
X91.599Y-108.219
X91.599Y-110.759
X91.599Y-113.299
X104.099Y-100.599
X104.099Y-103.139
X104.099Y-105.679
X104.099Y-108.219
X104.099Y-110.759
X104.099Y-113.299
T3
X91.5Y-81.75
X91.5Y-90.25
X106.5Y-81.75
X106.5Y-90.25
M30
