%TF.GenerationSoftware,KiCad,Pcbnew,9.0.4*%
%TF.CreationDate,2025-12-01T22:06:01-08:00*%
%TF.ProjectId,Donut of Doom,446f6e75-7420-46f6-9620-446f6f6d2e6b,rev?*%
%TF.SameCoordinates,Original*%
%TF.FileFunction,Copper,L2,Bot*%
%TF.FilePolarity,Positive*%
%FSLAX46Y46*%
G04 Gerber Fmt 4.6, Leading zero omitted, Abs format (unit mm)*
G04 Created by KiCad (PCBNEW 9.0.4) date 2025-12-01 22:06:01*
%MOMM*%
%LPD*%
G01*
G04 APERTURE LIST*
G04 Aperture macros list*
%AMRoundRect*
0 Rectangle with rounded corners*
0 $1 Rounding radius*
0 $2 $3 $4 $5 $6 $7 $8 $9 X,Y pos of 4 corners*
0 Add a 4 corners polygon primitive as box body*
4,1,4,$2,$3,$4,$5,$6,$7,$8,$9,$2,$3,0*
0 Add four circle primitives for the rounded corners*
1,1,$1+$1,$2,$3*
1,1,$1+$1,$4,$5*
1,1,$1+$1,$6,$7*
1,1,$1+$1,$8,$9*
0 Add four rect primitives between the rounded corners*
20,1,$1+$1,$2,$3,$4,$5,0*
20,1,$1+$1,$4,$5,$6,$7,0*
20,1,$1+$1,$6,$7,$8,$9,0*
20,1,$1+$1,$8,$9,$2,$3,0*%
G04 Aperture macros list end*
%TA.AperFunction,ComponentPad*%
%ADD10C,2.000000*%
%TD*%
%TA.AperFunction,ComponentPad*%
%ADD11C,1.800000*%
%TD*%
%TA.AperFunction,ComponentPad*%
%ADD12RoundRect,0.250000X0.650000X-0.650000X0.650000X0.650000X-0.650000X0.650000X-0.650000X-0.650000X0*%
%TD*%
%TA.AperFunction,ViaPad*%
%ADD13C,0.800000*%
%TD*%
%TA.AperFunction,Conductor*%
%ADD14C,0.250000*%
%TD*%
G04 APERTURE END LIST*
D10*
%TO.P,U2,1,Input+*%
%TO.N,+BATT*%
X91500000Y-81750000D03*
%TO.P,U2,2,Input-*%
%TO.N,-BATT*%
X91500000Y-90250000D03*
%TO.P,U2,3,5v-*%
%TO.N,GND*%
X106500000Y-90250000D03*
%TO.P,U2,4,5v+*%
%TO.N,+5V*%
X106500000Y-81750000D03*
%TD*%
D11*
%TO.P,U1,3V,3V*%
%TO.N,unconnected-(U1-Pad3V)*%
X104099200Y-110759200D03*
%TO.P,U1,CS,CS*%
%TO.N,unconnected-(U1-PadCS)*%
X91599200Y-100599200D03*
D12*
%TO.P,U1,GND,GND*%
%TO.N,GND*%
X104099200Y-108219200D03*
D11*
%TO.P,U1,I2,I2*%
%TO.N,unconnected-(U1-PadI2)*%
X91599200Y-113299200D03*
%TO.P,U1,INT,INT*%
%TO.N,unconnected-(U1-PadINT)*%
X104099200Y-100599200D03*
%TO.P,U1,NC,NC*%
%TO.N,unconnected-(U1-PadNC)*%
X91599200Y-110759200D03*
%TO.N,unconnected-(U1-PadNC)_1*%
X91599200Y-108219200D03*
%TO.N,unconnected-(U1-PadNC)_2*%
X91599200Y-105679200D03*
%TO.P,U1,SCL,SCL*%
%TO.N,/I2C0 SCL*%
X104099200Y-105679200D03*
%TO.P,U1,SDA,SDA*%
%TO.N,/I2C0 SDA*%
X104099200Y-103139200D03*
%TO.P,U1,SDO,SDO*%
%TO.N,unconnected-(U1-PadSDO)*%
X91599200Y-103139200D03*
%TO.P,U1,VIN,Vin*%
%TO.N,+3V3*%
X104099200Y-113299200D03*
%TD*%
D13*
%TO.N,+3V3*%
X108000000Y-113000000D03*
X127400000Y-79400000D03*
%TO.N,Net-(A1-GPIO0)*%
X107000000Y-75250000D03*
X108500000Y-69250000D03*
%TO.N,+5V*%
X108500000Y-71095000D03*
X127750000Y-71750000D03*
%TO.N,/GPIO4*%
X134000000Y-73750000D03*
X114750000Y-82000000D03*
%TD*%
D14*
%TO.N,+3V3*%
X108000000Y-108592226D02*
X127400000Y-89192226D01*
X108000000Y-113000000D02*
X108000000Y-108592226D01*
X127400000Y-89192226D02*
X127400000Y-79400000D01*
%TO.N,Net-(A1-GPIO0)*%
X107000000Y-75250000D02*
X107000000Y-70750000D01*
X107000000Y-70750000D02*
X108500000Y-69250000D01*
%TO.N,+5V*%
X108500000Y-71095000D02*
X127095000Y-71095000D01*
X127095000Y-71095000D02*
X127750000Y-71750000D01*
X108500000Y-79750000D02*
X108500000Y-71095000D01*
X106500000Y-81750000D02*
X108500000Y-79750000D01*
%TO.N,/GPIO4*%
X134000000Y-73750000D02*
X123000000Y-73750000D01*
X123000000Y-73750000D02*
X114750000Y-82000000D01*
%TD*%
M02*
