%TF.GenerationSoftware,KiCad,Pcbnew,9.0.4*%
%TF.CreationDate,2025-12-01T22:06:01-08:00*%
%TF.ProjectId,Donut of Doom,446f6e75-7420-46f6-9620-446f6f6d2e6b,rev?*%
%TF.SameCoordinates,Original*%
%TF.FileFunction,Paste,Top*%
%TF.FilePolarity,Positive*%
%FSLAX46Y46*%
G04 Gerber Fmt 4.6, Leading zero omitted, Abs format (unit mm)*
G04 Created by KiCad (PCBNEW 9.0.4) date 2025-12-01 22:06:01*
%MOMM*%
%LPD*%
G01*
G04 APERTURE LIST*
G04 Aperture macros list*
%AMRoundRect*
0 Rectangle with rounded corners*
0 $1 Rounding radius*
0 $2 $3 $4 $5 $6 $7 $8 $9 X,Y pos of 4 corners*
0 Add a 4 corners polygon primitive as box body*
4,1,4,$2,$3,$4,$5,$6,$7,$8,$9,$2,$3,0*
0 Add four circle primitives for the rounded corners*
1,1,$1+$1,$2,$3*
1,1,$1+$1,$4,$5*
1,1,$1+$1,$6,$7*
1,1,$1+$1,$8,$9*
0 Add four rect primitives between the rounded corners*
20,1,$1+$1,$2,$3,$4,$5,0*
20,1,$1+$1,$4,$5,$6,$7,0*
20,1,$1+$1,$6,$7,$8,$9,0*
20,1,$1+$1,$8,$9,$2,$3,0*%
G04 Aperture macros list end*
%ADD10R,0.800000X0.800000*%
%ADD11R,1.100000X2.000000*%
%ADD12R,3.800000X2.200000*%
%ADD13R,2.200000X3.800000*%
%ADD14RoundRect,0.237500X-0.237500X0.250000X-0.237500X-0.250000X0.237500X-0.250000X0.237500X0.250000X0*%
%ADD15RoundRect,0.237500X0.237500X-0.250000X0.237500X0.250000X-0.237500X0.250000X-0.237500X-0.250000X0*%
%ADD16RoundRect,0.237500X0.287500X0.237500X-0.287500X0.237500X-0.287500X-0.237500X0.287500X-0.237500X0*%
G04 APERTURE END LIST*
D10*
%TO.C,D3*%
X134700000Y-107300000D03*
D11*
X134700000Y-109200000D03*
%TD*%
D12*
%TO.C,A1*%
X111420000Y-69240000D03*
X111420000Y-71780000D03*
X111420000Y-74320000D03*
X111420000Y-76860000D03*
X111420000Y-79400000D03*
X111420000Y-81940000D03*
X111420000Y-84480000D03*
X111420000Y-87020000D03*
X111420000Y-89560000D03*
X111420000Y-92100000D03*
X111420000Y-94640000D03*
X111420000Y-97180000D03*
X111420000Y-99720000D03*
X111420000Y-102260000D03*
X111420000Y-104800000D03*
X111420000Y-107340000D03*
X111420000Y-109880000D03*
X111420000Y-112420000D03*
X111420000Y-114960000D03*
X111420000Y-117500000D03*
D13*
X118570000Y-118070000D03*
X121110000Y-118070000D03*
X123650000Y-118070000D03*
D12*
X130800000Y-69240000D03*
X130800000Y-71780000D03*
X130800000Y-74320000D03*
X130800000Y-76860000D03*
X130800000Y-79400000D03*
X130800000Y-81940000D03*
X130800000Y-84480000D03*
X130800000Y-87020000D03*
X130800000Y-89560000D03*
X130800000Y-92100000D03*
X130800000Y-94640000D03*
X130800000Y-97180000D03*
X130800000Y-99720000D03*
X130800000Y-102260000D03*
X130800000Y-104800000D03*
X130800000Y-107340000D03*
X130800000Y-109880000D03*
X130800000Y-112420000D03*
X130800000Y-114960000D03*
X130800000Y-117500000D03*
%TD*%
D10*
%TO.C,D2*%
X134700000Y-104920000D03*
D11*
X134700000Y-103020000D03*
%TD*%
D14*
%TO.C,R2*%
X136800000Y-107387500D03*
X136800000Y-109212500D03*
%TD*%
D15*
%TO.C,R1*%
X136800000Y-104812500D03*
X136800000Y-102987500D03*
%TD*%
D16*
%TO.C,D4*%
X135875000Y-70500000D03*
X134125000Y-70500000D03*
%TD*%
M02*
