%TF.GenerationSoftware,KiCad,Pcbnew,9.0.4*%
%TF.CreationDate,2026-01-17T18:36:07-08:00*%
%TF.ProjectId,Donut of Doom,446f6e75-7420-46f6-9620-446f6f6d2e6b,rev?*%
%TF.SameCoordinates,Original*%
%TF.FileFunction,Paste,Bot*%
%TF.FilePolarity,Positive*%
%FSLAX46Y46*%
G04 Gerber Fmt 4.6, Leading zero omitted, Abs format (unit mm)*
G04 Created by KiCad (PCBNEW 9.0.4) date 2026-01-17 18:36:07*
%MOMM*%
%LPD*%
G01*
G04 APERTURE LIST*
G04 Aperture macros list*
%AMRoundRect*
0 Rectangle with rounded corners*
0 $1 Rounding radius*
0 $2 $3 $4 $5 $6 $7 $8 $9 X,Y pos of 4 corners*
0 Add a 4 corners polygon primitive as box body*
4,1,4,$2,$3,$4,$5,$6,$7,$8,$9,$2,$3,0*
0 Add four circle primitives for the rounded corners*
1,1,$1+$1,$2,$3*
1,1,$1+$1,$4,$5*
1,1,$1+$1,$6,$7*
1,1,$1+$1,$8,$9*
0 Add four rect primitives between the rounded corners*
20,1,$1+$1,$2,$3,$4,$5,0*
20,1,$1+$1,$4,$5,$6,$7,0*
20,1,$1+$1,$6,$7,$8,$9,0*
20,1,$1+$1,$8,$9,$2,$3,0*%
G04 Aperture macros list end*
%ADD10R,0.800000X0.800000*%
%ADD11R,2.000000X1.100000*%
%ADD12RoundRect,0.237500X-0.250000X-0.237500X0.250000X-0.237500X0.250000X0.237500X-0.250000X0.237500X0*%
%ADD13O,3.400000X2.500000*%
%ADD14RoundRect,0.237500X-0.237500X0.250000X-0.237500X-0.250000X0.237500X-0.250000X0.237500X0.250000X0*%
%ADD15RoundRect,0.237500X-0.300000X-0.237500X0.300000X-0.237500X0.300000X0.237500X-0.300000X0.237500X0*%
%ADD16RoundRect,0.237500X0.250000X0.237500X-0.250000X0.237500X-0.250000X-0.237500X0.250000X-0.237500X0*%
%ADD17RoundRect,0.200000X-0.200000X0.750000X-0.200000X-0.750000X0.200000X-0.750000X0.200000X0.750000X0*%
%ADD18RoundRect,0.237500X0.237500X-0.250000X0.237500X0.250000X-0.237500X0.250000X-0.237500X-0.250000X0*%
%ADD19O,3.600000X2.500000*%
%ADD20RoundRect,0.250000X-1.750000X-1.000000X1.750000X-1.000000X1.750000X1.000000X-1.750000X1.000000X0*%
%ADD21RoundRect,0.087500X-0.187500X-0.087500X0.187500X-0.087500X0.187500X0.087500X-0.187500X0.087500X0*%
%ADD22RoundRect,0.087500X-0.087500X-0.187500X0.087500X-0.187500X0.087500X0.187500X-0.087500X0.187500X0*%
%ADD23RoundRect,0.250000X-0.337500X-0.475000X0.337500X-0.475000X0.337500X0.475000X-0.337500X0.475000X0*%
%ADD24R,0.750000X1.000000*%
%ADD25RoundRect,0.300000X0.700000X-0.700000X0.700000X0.700000X-0.700000X0.700000X-0.700000X-0.700000X0*%
%ADD26RoundRect,0.237500X0.287500X0.237500X-0.287500X0.237500X-0.287500X-0.237500X0.287500X-0.237500X0*%
%ADD27RoundRect,0.237500X0.237500X-0.287500X0.237500X0.287500X-0.237500X0.287500X-0.237500X-0.287500X0*%
G04 APERTURE END LIST*
D10*
%TO.C,D3*%
X142100000Y-74400000D03*
D11*
X140200000Y-74400000D03*
%TD*%
D12*
%TO.C,R7*%
X144100000Y-102200000D03*
X145925000Y-102200000D03*
%TD*%
D13*
%TO.C,TP6*%
X141550000Y-119900000D03*
%TD*%
D14*
%TO.C,R4*%
X149600000Y-77587500D03*
X149600000Y-79412500D03*
%TD*%
D15*
%TO.C,C2*%
X152987500Y-79250000D03*
X154712500Y-79250000D03*
%TD*%
D10*
%TO.C,D4*%
X158830000Y-74400000D03*
D11*
X160730000Y-74400000D03*
%TD*%
D16*
%TO.C,R2*%
X141912500Y-72500000D03*
X140087500Y-72500000D03*
%TD*%
D17*
%TO.C,Q1*%
X159650000Y-87300000D03*
X161550000Y-87300000D03*
X160600000Y-90300000D03*
%TD*%
D18*
%TO.C,R1*%
X159050000Y-83462500D03*
X159050000Y-81637500D03*
%TD*%
D19*
%TO.C,ESC2*%
X160900000Y-70100000D03*
%TD*%
D20*
%TO.C,U2*%
X141675000Y-107350000D03*
X141625000Y-116100000D03*
X159625000Y-116100000D03*
X159625000Y-107350000D03*
%TD*%
D21*
%TO.C,U3*%
X149587500Y-83250000D03*
X149587500Y-82750000D03*
X149587500Y-82250000D03*
X149587500Y-81750000D03*
X149587500Y-81250000D03*
D22*
X150312500Y-81025000D03*
X150812500Y-81025000D03*
X151312500Y-81025000D03*
D21*
X152037500Y-81250000D03*
X152037500Y-81750000D03*
X152037500Y-82250000D03*
X152037500Y-82750000D03*
X152037500Y-83250000D03*
D22*
X151312500Y-83475000D03*
X150812500Y-83475000D03*
X150312500Y-83475000D03*
%TD*%
D23*
%TO.C,C1*%
X149312500Y-85450000D03*
X151387500Y-85450000D03*
%TD*%
D16*
%TO.C,R6*%
X145925000Y-103900000D03*
X144100000Y-103900000D03*
%TD*%
D12*
%TO.C,R3*%
X158987500Y-72600000D03*
X160812500Y-72600000D03*
%TD*%
D14*
%TO.C,R5*%
X151210000Y-77575000D03*
X151210000Y-79400000D03*
%TD*%
D24*
%TO.C,S1*%
X157125000Y-100750000D03*
X157125000Y-96250000D03*
X159275000Y-100750000D03*
X159275000Y-96250000D03*
%TD*%
D25*
%TO.C,D1*%
X161600000Y-81450000D03*
X161600000Y-84450000D03*
%TD*%
D13*
%TO.C,TP5*%
X159750000Y-119900000D03*
%TD*%
D19*
%TO.C,ESC1*%
X140400000Y-70100000D03*
%TD*%
D26*
%TO.C,D5*%
X154775000Y-77100000D03*
X153025000Y-77100000D03*
%TD*%
D27*
%TO.C,D2*%
X157300000Y-83425000D03*
X157300000Y-81675000D03*
%TD*%
M02*
