%TF.GenerationSoftware,KiCad,Pcbnew,9.0.4*%
%TF.CreationDate,2026-01-16T22:45:35-08:00*%
%TF.ProjectId,Donut of Doom,446f6e75-7420-46f6-9620-446f6f6d2e6b,rev?*%
%TF.SameCoordinates,Original*%
%TF.FileFunction,Soldermask,Bot*%
%TF.FilePolarity,Negative*%
%FSLAX46Y46*%
G04 Gerber Fmt 4.6, Leading zero omitted, Abs format (unit mm)*
G04 Created by KiCad (PCBNEW 9.0.4) date 2026-01-16 22:45:35*
%MOMM*%
%LPD*%
G01*
G04 APERTURE LIST*
G04 Aperture macros list*
%AMRoundRect*
0 Rectangle with rounded corners*
0 $1 Rounding radius*
0 $2 $3 $4 $5 $6 $7 $8 $9 X,Y pos of 4 corners*
0 Add a 4 corners polygon primitive as box body*
4,1,4,$2,$3,$4,$5,$6,$7,$8,$9,$2,$3,0*
0 Add four circle primitives for the rounded corners*
1,1,$1+$1,$2,$3*
1,1,$1+$1,$4,$5*
1,1,$1+$1,$6,$7*
1,1,$1+$1,$8,$9*
0 Add four rect primitives between the rounded corners*
20,1,$1+$1,$2,$3,$4,$5,0*
20,1,$1+$1,$4,$5,$6,$7,0*
20,1,$1+$1,$6,$7,$8,$9,0*
20,1,$1+$1,$8,$9,$2,$3,0*%
G04 Aperture macros list end*
%ADD10C,0.250800*%
%ADD11C,2.200000*%
%ADD12C,1.850000*%
%ADD13R,0.800000X0.800000*%
%ADD14R,2.000000X1.100000*%
%ADD15RoundRect,0.237500X-0.250000X-0.237500X0.250000X-0.237500X0.250000X0.237500X-0.250000X0.237500X0*%
%ADD16RoundRect,0.237500X-0.237500X0.250000X-0.237500X-0.250000X0.237500X-0.250000X0.237500X0.250000X0*%
%ADD17RoundRect,0.237500X-0.300000X-0.237500X0.300000X-0.237500X0.300000X0.237500X-0.300000X0.237500X0*%
%ADD18RoundRect,0.237500X0.250000X0.237500X-0.250000X0.237500X-0.250000X-0.237500X0.250000X-0.237500X0*%
%ADD19R,1.500000X1.500000*%
%ADD20RoundRect,0.200000X-0.200000X0.750000X-0.200000X-0.750000X0.200000X-0.750000X0.200000X0.750000X0*%
%ADD21RoundRect,0.237500X0.237500X-0.250000X0.237500X0.250000X-0.237500X0.250000X-0.237500X-0.250000X0*%
%ADD22O,3.600000X2.500000*%
%ADD23RoundRect,0.250000X-1.750000X-1.000000X1.750000X-1.000000X1.750000X1.000000X-1.750000X1.000000X0*%
%ADD24RoundRect,0.087500X-0.187500X-0.087500X0.187500X-0.087500X0.187500X0.087500X-0.187500X0.087500X0*%
%ADD25RoundRect,0.087500X-0.087500X-0.187500X0.087500X-0.187500X0.087500X0.187500X-0.087500X0.187500X0*%
%ADD26RoundRect,0.250000X-0.337500X-0.475000X0.337500X-0.475000X0.337500X0.475000X-0.337500X0.475000X0*%
%ADD27RoundRect,0.102000X0.375000X-0.500000X0.375000X0.500000X-0.375000X0.500000X-0.375000X-0.500000X0*%
%ADD28RoundRect,0.300000X0.700000X-0.700000X0.700000X0.700000X-0.700000X0.700000X-0.700000X-0.700000X0*%
%ADD29RoundRect,0.237500X0.287500X0.237500X-0.287500X0.237500X-0.287500X-0.237500X0.287500X-0.237500X0*%
%ADD30RoundRect,0.240000X0.560000X0.710000X-0.560000X0.710000X-0.560000X-0.710000X0.560000X-0.710000X0*%
%ADD31RoundRect,0.237500X0.237500X-0.287500X0.237500X0.287500X-0.237500X0.287500X-0.237500X-0.287500X0*%
G04 APERTURE END LIST*
D10*
X141080000Y-118630000D02*
X143620000Y-118630000D01*
X143620000Y-121170000D01*
X141080000Y-121170000D01*
X141080000Y-118630000D01*
G36*
X141080000Y-118630000D02*
G01*
X143620000Y-118630000D01*
X143620000Y-121170000D01*
X141080000Y-121170000D01*
X141080000Y-118630000D01*
G37*
X158480000Y-118630000D02*
X161020000Y-118630000D01*
X161020000Y-121170000D01*
X158480000Y-121170000D01*
X158480000Y-118630000D01*
G36*
X158480000Y-118630000D02*
G01*
X161020000Y-118630000D01*
X161020000Y-121170000D01*
X158480000Y-121170000D01*
X158480000Y-118630000D01*
G37*
D11*
%TO.C,A1*%
X147900000Y-70670000D03*
D12*
X148200000Y-73700000D03*
X153050000Y-73700000D03*
D11*
X153350000Y-70670000D03*
%TD*%
D13*
%TO.C,D3*%
X142100000Y-74400000D03*
D14*
X140200000Y-74400000D03*
%TD*%
D15*
%TO.C,R7*%
X144100000Y-102200000D03*
X145925000Y-102200000D03*
%TD*%
D16*
%TO.C,R4*%
X149600000Y-77587500D03*
X149600000Y-79412500D03*
%TD*%
D17*
%TO.C,C2*%
X153437500Y-79700000D03*
X155162500Y-79700000D03*
%TD*%
D13*
%TO.C,D4*%
X158830000Y-74400000D03*
D14*
X160730000Y-74400000D03*
%TD*%
D18*
%TO.C,R2*%
X141912500Y-72500000D03*
X140087500Y-72500000D03*
%TD*%
D19*
%TO.C,TP2*%
X154800000Y-81900000D03*
%TD*%
D20*
%TO.C,Q1*%
X159650000Y-87300000D03*
X161550000Y-87300000D03*
X160600000Y-90300000D03*
%TD*%
D21*
%TO.C,R1*%
X157400000Y-83412500D03*
X157400000Y-81587500D03*
%TD*%
D22*
%TO.C,PWM2*%
X160900000Y-70100000D03*
%TD*%
D23*
%TO.C,U2*%
X141675000Y-107350000D03*
X141625000Y-116100000D03*
X159625000Y-116100000D03*
X159625000Y-107350000D03*
%TD*%
D24*
%TO.C,U3*%
X149587500Y-83250000D03*
X149587500Y-82750000D03*
X149587500Y-82250000D03*
X149587500Y-81750000D03*
X149587500Y-81250000D03*
D25*
X150312500Y-81025000D03*
X150812500Y-81025000D03*
X151312500Y-81025000D03*
D24*
X152037500Y-81250000D03*
X152037500Y-81750000D03*
X152037500Y-82250000D03*
X152037500Y-82750000D03*
X152037500Y-83250000D03*
D25*
X151312500Y-83475000D03*
X150812500Y-83475000D03*
X150312500Y-83475000D03*
%TD*%
D26*
%TO.C,C1*%
X149312500Y-85450000D03*
X151387500Y-85450000D03*
%TD*%
D18*
%TO.C,R6*%
X145925000Y-103900000D03*
X144100000Y-103900000D03*
%TD*%
D15*
%TO.C,R3*%
X158987500Y-72600000D03*
X160812500Y-72600000D03*
%TD*%
D16*
%TO.C,R5*%
X151210000Y-77575000D03*
X151210000Y-79400000D03*
%TD*%
D27*
%TO.C,S1*%
X157125000Y-100750000D03*
X157125000Y-96250000D03*
X159275000Y-100750000D03*
X159275000Y-96250000D03*
%TD*%
D28*
%TO.C,D1*%
X161600000Y-80200000D03*
X161600000Y-83200000D03*
%TD*%
D19*
%TO.C,TP1*%
X154800000Y-85400000D03*
%TD*%
D22*
%TO.C,PWM1*%
X140400000Y-70100000D03*
%TD*%
D29*
%TO.C,D5*%
X154775000Y-77100000D03*
X153025000Y-77100000D03*
%TD*%
D30*
%TO.C,U1*%
X154300000Y-100350000D03*
X151833333Y-100350000D03*
X149366667Y-100350000D03*
X146900000Y-100350000D03*
%TD*%
D31*
%TO.C,D2*%
X159300000Y-83375000D03*
X159300000Y-81625000D03*
%TD*%
M02*
