M48
; DRILL file {KiCad 9.0.4} date 2026-01-17T12:08:54-0800
; FORMAT={-:-/ absolute / metric / decimal}
; #@! TF.CreationDate,2026-01-17T12:08:54-08:00
; #@! TF.GenerationSoftware,Kicad,Pcbnew,9.0.4
; #@! TF.FileFunction,Plated,1,2,PTH
FMAT,2
METRIC
; #@! TA.AperFunction,Plated,PTH,ViaDrill
T1C0.300
; #@! TA.AperFunction,Plated,PTH,ViaDrill
T2C0.400
; #@! TA.AperFunction,Plated,PTH,ComponentDrill
T3C1.000
%
G90
G05
T1
X150.5Y-82.4
X153.1Y-101.8
X155.7Y-100.3
T2
X143.2Y-71.5
X143.2Y-79.933
X143.2Y-103.0
X143.2Y-112.9
X143.2Y-113.9
X143.3Y-77.1
X143.3Y-87.9
X143.3Y-88.9
X143.3Y-101.0
X143.4Y-83.1
X143.5Y-73.5
X143.5Y-75.5
X143.6Y-85.8
X144.4Y-115.0
X144.4Y-116.0
X144.4Y-117.0
X144.7Y-106.3
X144.85Y-76.65
X144.9Y-94.85
X144.9Y-96.0
X145.0Y-109.3
X145.7Y-75.8
X146.0Y-82.0
X146.133Y-110.4
X146.55Y-74.95
X146.55Y-78.25
X146.55Y-79.4
X147.367Y-111.6
X147.5Y-107.3
X147.8Y-102.9
X147.85Y-86.0
X148.6Y-112.8
X148.633Y-108.4
X148.95Y-87.5
X149.1Y-102.9
X149.8Y-114.1
X149.867Y-109.6
X150.1Y-117.1
X150.2Y-76.2
X150.4Y-102.9
X151.067Y-115.4
X151.1Y-110.8
X151.1Y-117.1
X152.3Y-112.1
X152.3Y-116.7
X152.8Y-85.9
X152.8Y-87.15
X153.567Y-113.4
X153.85Y-83.7
X154.8Y-78.15
X154.8Y-114.7
X155.15Y-85.05
X155.5Y-74.05
X155.9Y-76.1
X156.5Y-106.4
X156.5Y-107.4
X156.5Y-108.4
X156.65Y-94.85
X156.8Y-115.4
X156.8Y-116.5
X156.9Y-109.6
X157.15Y-98.25
X157.3Y-78.5
X157.4Y-73.4
X157.8Y-71.5
X157.9Y-87.5
X157.9Y-113.3
X157.9Y-114.4
X158.0Y-80.2
X158.0Y-109.6
X158.2Y-75.8
X158.2Y-76.7
X158.7Y-94.6
X162.35Y-74.15
X162.35Y-79.4
X162.4Y-100.2
X162.4Y-102.0
T3
X140.3Y-111.2
X141.75Y-90.85
X141.75Y-93.4
X160.9Y-111.2
M30
