%TF.GenerationSoftware,KiCad,Pcbnew,9.0.4*%
%TF.CreationDate,2026-01-17T12:08:51-08:00*%
%TF.ProjectId,Donut of Doom,446f6e75-7420-46f6-9620-446f6f6d2e6b,rev?*%
%TF.SameCoordinates,Original*%
%TF.FileFunction,Paste,Top*%
%TF.FilePolarity,Positive*%
%FSLAX46Y46*%
G04 Gerber Fmt 4.6, Leading zero omitted, Abs format (unit mm)*
G04 Created by KiCad (PCBNEW 9.0.4) date 2026-01-17 12:08:51*
%MOMM*%
%LPD*%
G01*
G04 APERTURE LIST*
%ADD10R,3.800000X2.200000*%
%ADD11R,2.200000X3.800000*%
G04 APERTURE END LIST*
D10*
%TO.C,A1*%
X140935000Y-70540000D03*
X140935000Y-73080000D03*
X140935000Y-75620000D03*
X140935000Y-78160000D03*
X140935000Y-80700000D03*
X140935000Y-83240000D03*
X140935000Y-85780000D03*
X140935000Y-88320000D03*
X140935000Y-90860000D03*
X140935000Y-93400000D03*
X140935000Y-95940000D03*
X140935000Y-98480000D03*
X140935000Y-101020000D03*
X140935000Y-103560000D03*
X140935000Y-106100000D03*
X140935000Y-108640000D03*
X140935000Y-111180000D03*
X140935000Y-113720000D03*
X140935000Y-116260000D03*
X140935000Y-118800000D03*
D11*
X148085000Y-119370000D03*
X150625000Y-119370000D03*
X153165000Y-119370000D03*
D10*
X160315000Y-70540000D03*
X160315000Y-73080000D03*
X160315000Y-75620000D03*
X160315000Y-78160000D03*
X160315000Y-80700000D03*
X160315000Y-83240000D03*
X160315000Y-85780000D03*
X160315000Y-88320000D03*
X160315000Y-90860000D03*
X160315000Y-93400000D03*
X160315000Y-95940000D03*
X160315000Y-98480000D03*
X160315000Y-101020000D03*
X160315000Y-103560000D03*
X160315000Y-106100000D03*
X160315000Y-108640000D03*
X160315000Y-111180000D03*
X160315000Y-113720000D03*
X160315000Y-116260000D03*
X160315000Y-118800000D03*
%TD*%
M02*
